# xmcd
#
# Track frame offsets:
#	150
#	26548
#	40231
#	56875
#	61376
#	71481
#	82056
#	93118
#	101599
#	118661
#	141948
#	154105
#	175600
#
# Disc length: 2535 seconds
#
# Revision: 0
# Processed by: cddbd v1.5.2PL0 Copyright (c) Steve Scherf et al.
# Submitted via: dBpowerAMP V4.0
#
DISCID=ad09e50d
DTITLE=Tradition's Revival - Country meets Folk
DYEAR=2005
DGENRE=Country
TTITLE0=coward of the country
TTITLE1=2 Pina Coladas
TTITLE2=it's a lesson
TTITLE3=Polish dance
TTITLE4=turkey in the straw
TTITLE5=cattle call
TTITLE6=San Antonio rose
TTITLE7=Old World medley
TTITLE8=Puff the magic dragon
TTITLE9=Fiddlers Green
TTITLE10=Folsom Prison blues
TTITLE11=banks of the Ohio
TTITLE12=Detrot City
EXTD=
EXTT0=
EXTT1=
EXTT2=
EXTT3=
EXTT4=
EXTT5=
EXTT6=
EXTT7=
EXTT8=
EXTT9=
EXTT10=
EXTT11=
EXTT12=
PLAYORDER=
